<?xml version="1.0" standalone="no"?>
<!DOCTYPE svg PUBLIC "-//W3C//DTD SVG 20010904//EN"
 "http://www.w3.org/TR/2001/REC-SVG-20010904/DTD/svg10.dtd">
<svg version="1.0" xmlns="http://www.w3.org/2000/svg"
 width="992.000000pt" height="992.000000pt" viewBox="0 0 992.000000 992.000000"
 preserveAspectRatio="xMidYMid meet">
<metadata>
Created by potrace 1.14, written by Peter Selinger 2001-2017
</metadata>
<g transform="translate(0.000000,992.000000) scale(0.100000,-0.100000)"
fill="#000000" stroke="none">
<path d="M5310 9731 c0 -11 19 -24 38 -27 16 -3 15 1 -4 20 -17 18 -34 21 -34
7z"/>
<path d="M4900 9700 c0 -3 -44 -6 -98 -7 -96 -2 -166 -7 -272 -18 -140 -15
-222 -25 -240 -30 -8 -2 -35 -7 -60 -10 -25 -4 -99 -18 -165 -31 -133 -28
-136 -29 -182 -43 -18 -5 -33 -8 -33 -6 0 2 -18 -2 -40 -10 -22 -8 -40 -12
-40 -10 0 2 -17 -3 -37 -12 -21 -8 -38 -14 -38 -13 0 14 -410 -128 -593 -206
-148 -64 -356 -165 -364 -178 -4 -6 -8 -7 -8 -2 0 5 -8 2 -17 -6 -10 -8 -31
-22 -48 -30 -96 -49 -188 -106 -193 -119 -2 -5 -8 -9 -13 -9 -11 0 -178 -109
-199 -130 -3 -3 -27 -21 -55 -39 -27 -19 -52 -38 -55 -41 -3 -3 -39 -32 -80
-64 -164 -127 -370 -320 -540 -505 -52 -57 -102 -111 -110 -120 -16 -18 -110
-129 -123 -146 -4 -5 -18 -22 -32 -37 -13 -15 -36 -45 -52 -65 -15 -21 -48
-64 -73 -95 -80 -102 -87 -112 -123 -184 -20 -39 -47 -78 -60 -87 -15 -10 -24
-24 -23 -39 2 -25 -17 -60 -51 -95 -13 -12 -23 -32 -23 -44 0 -11 -8 -33 -18
-47 -22 -31 -192 -374 -196 -394 -1 -7 -12 -33 -24 -58 -47 -99 -130 -332
-168 -475 -4 -14 -73 -280 -74 -282 0 -2 0 -4 -1 -5 -2 -7 -7 -35 -12 -63 -3
-16 -8 -46 -11 -65 -4 -19 -9 -44 -11 -55 -2 -11 -4 -20 -5 -20 -1 0 -3 -16
-5 -35 -3 -19 -8 -51 -11 -70 -4 -19 -8 -44 -9 -55 -6 -60 -16 -153 -20 -175
-32 -182 -25 -957 9 -1056 2 -6 0 -17 -4 -25 -5 -7 -5 -18 0 -24 5 -6 11 -24
14 -40 3 -17 8 -41 11 -55 3 -14 8 -45 11 -70 3 -25 8 -49 11 -53 2 -4 6 -22
8 -40 4 -36 12 -74 26 -132 5 -22 11 -49 14 -60 6 -32 14 -65 20 -85 3 -10 8
-29 10 -41 5 -23 78 -227 96 -264 5 -11 15 -38 23 -60 27 -75 134 -317 145
-328 6 -6 11 -16 11 -21 1 -10 40 -92 70 -146 8 -14 15 -31 16 -37 1 -7 12
-24 23 -39 12 -15 21 -31 21 -36 0 -12 81 -132 92 -136 4 -2 8 -10 8 -17 0 -7
3 -15 8 -17 4 -1 20 -19 36 -38 15 -19 49 -57 74 -83 27 -29 46 -59 47 -75 3
-41 14 -60 40 -66 29 -7 59 -40 175 -186 51 -63 124 -150 163 -194 40 -43 73
-83 75 -87 2 -5 7 -9 12 -9 8 0 75 131 72 143 -1 4 2 7 8 7 6 0 9 3 8 8 -1 4
16 45 39 92 44 92 139 289 223 465 77 162 164 342 237 495 36 74 82 171 103
215 21 44 65 135 98 203 34 67 59 122 56 122 -3 0 4 13 15 29 12 16 21 32 21
36 0 4 18 43 40 87 22 44 40 87 40 94 0 8 5 14 10 14 6 0 10 4 10 10 0 5 31
74 69 152 37 79 92 193 121 253 29 61 79 164 110 230 32 66 90 188 130 270 40
83 92 191 115 240 24 50 73 153 111 230 37 77 68 142 69 145 9 30 78 160 85
160 5 0 12 -10 16 -22 4 -13 17 -45 29 -73 13 -27 33 -72 45 -100 12 -27 30
-68 40 -90 10 -22 42 -94 70 -160 29 -66 60 -136 68 -155 9 -19 16 -37 17 -40
1 -3 12 -27 24 -55 12 -27 29 -65 37 -82 8 -18 22 -50 31 -70 10 -21 17 -40
18 -43 0 -3 11 -27 24 -55 12 -27 27 -59 32 -70 4 -11 45 -103 89 -205 45
-102 87 -198 94 -215 28 -62 55 -122 86 -195 36 -85 61 -141 96 -218 13 -29
36 -80 50 -115 14 -34 41 -95 60 -135 19 -41 34 -79 34 -86 0 -7 4 -16 9 -21
5 -6 30 -59 56 -120 26 -60 55 -128 65 -150 59 -129 80 -176 86 -199 3 -14 11
-26 17 -26 6 0 8 -2 5 -6 -3 -3 22 -67 56 -142 l63 -137 271 0 c175 -1 272 3
272 9 0 6 -42 107 -94 225 -114 260 -120 274 -118 284 1 4 -2 7 -7 7 -5 0 -12
11 -15 25 -4 14 -17 49 -30 78 -21 46 -64 146 -101 232 -7 17 -22 50 -33 75
-11 25 -32 74 -47 110 -27 65 -45 106 -91 208 -13 29 -24 55 -24 57 0 2 -11
28 -24 57 -56 123 -86 190 -86 194 0 3 -11 30 -25 60 -14 30 -25 57 -25 59 0
2 -11 28 -24 57 -13 29 -38 87 -56 128 -18 41 -41 93 -51 114 -11 22 -19 43
-19 47 0 5 -15 41 -34 81 -18 40 -46 102 -61 138 -15 36 -40 93 -56 128 -16
35 -29 65 -29 67 0 3 -11 28 -24 57 -13 29 -45 103 -71 163 -26 61 -56 130
-67 155 -11 25 -27 61 -35 80 -8 19 -23 53 -33 75 -10 22 -40 90 -65 150 -86
201 -91 213 -139 325 -21 47 -41 93 -47 102 -5 10 -9 25 -9 33 0 8 -4 15 -10
15 -5 0 -10 6 -10 13 0 10 -42 112 -100 242 -65 144 -140 322 -140 333 0 6 -4
12 -9 12 -4 0 -14 20 -21 45 -23 81 -12 96 -190 -280 -73 -156 -91 -195 -89
-201 0 -4 -4 -10 -11 -14 -6 -4 -12 -13 -14 -21 -1 -8 -22 -54 -45 -104 -24
-49 -58 -121 -76 -160 -48 -103 -105 -223 -175 -370 -34 -71 -74 -157 -90
-190 -16 -33 -50 -105 -76 -160 -26 -55 -48 -102 -49 -105 -2 -7 -55 -120
-112 -240 -54 -112 -95 -199 -163 -345 -23 -49 -54 -115 -68 -145 -14 -30 -25
-58 -24 -62 1 -5 -3 -8 -8 -8 -6 0 -10 -4 -10 -9 0 -8 -43 -102 -147 -321 -42
-89 -94 -199 -114 -245 -5 -11 -13 -27 -18 -35 -5 -8 -19 -37 -32 -65 -21 -49
-73 -159 -176 -375 -27 -58 -59 -125 -70 -150 -33 -72 -116 -245 -119 -249 -5
-6 -54 20 -82 44 -31 26 -69 97 -89 164 -8 31 -22 70 -29 86 -7 17 -22 55 -34
85 -11 30 -25 64 -30 75 -25 60 -40 109 -45 152 -13 96 -34 239 -40 263 -3 14
-7 39 -10 55 -2 17 -7 46 -10 65 -4 19 -8 45 -10 57 -2 13 -6 26 -9 31 -2 4
-7 26 -10 47 -3 22 -8 54 -11 70 -4 17 -8 39 -10 50 -6 38 -18 130 -21 155 -1
14 -3 25 -4 25 0 0 -3 29 -6 65 -2 36 -6 85 -9 110 -9 81 -11 302 -3 306 5 3
8 -6 8 -20 0 -14 4 -27 9 -30 5 -4 10 35 11 91 1 54 3 116 5 138 11 100 14
215 7 215 -4 0 -16 -16 -26 -35 -17 -31 -40 -41 -31 -12 2 7 6 42 9 78 3 37 8
73 10 80 3 8 7 39 11 69 3 30 10 80 15 110 5 30 12 70 15 87 3 18 12 63 21
100 9 38 20 95 24 128 5 33 13 80 20 105 6 25 13 52 15 60 2 9 15 42 30 75 30
65 34 75 60 150 32 92 128 320 137 323 4 2 8 10 8 18 0 46 294 552 385 661 5
7 18 23 27 35 17 23 95 123 110 143 4 6 20 24 35 41 16 18 48 55 73 83 66 76
258 269 319 321 29 25 63 54 75 65 11 11 66 55 121 98 55 43 108 85 118 93 10
8 29 20 43 26 13 6 24 14 24 18 0 3 19 17 43 30 23 13 44 26 47 29 12 14 161
120 220 157 88 55 255 141 310 159 3 1 19 8 35 15 17 7 36 14 44 16 7 1 18 7
24 13 6 6 19 11 29 11 10 0 18 4 18 8 0 5 6 9 13 9 10 0 80 24 207 71 8 3 17
6 20 7 3 1 21 6 40 12 170 54 211 65 250 68 25 2 54 6 65 9 76 18 164 38 185
42 14 2 32 5 40 7 68 16 212 28 380 32 80 2 190 7 245 11 137 10 448 10 575 0
58 -5 128 -10 155 -12 28 -1 50 -3 50 -4 0 -2 22 -6 80 -15 83 -12 127 -21
133 -25 3 -3 12 -5 67 -14 27 -4 65 -14 85 -21 19 -8 44 -15 55 -17 11 -2 22
-6 25 -10 3 -4 18 -9 34 -12 33 -6 225 -70 271 -91 17 -7 66 -28 110 -45 44
-17 83 -36 86 -42 3 -5 8 -9 10 -8 13 5 221 -96 330 -160 27 -17 52 -30 54
-30 7 0 70 -44 117 -83 25 -20 48 -37 53 -37 4 0 24 -13 45 -30 21 -16 42 -30
48 -30 6 0 12 -3 14 -7 2 -5 21 -21 43 -38 57 -42 52 -38 145 -114 47 -39 95
-81 107 -94 12 -13 48 -44 80 -68 92 -69 134 -108 192 -179 29 -36 74 -86 100
-111 86 -86 137 -144 192 -214 29 -38 65 -82 79 -96 14 -14 57 -61 95 -104 39
-43 80 -87 92 -99 32 -31 172 -318 233 -476 7 -19 16 -39 20 -45 3 -5 13 -30
20 -55 7 -25 17 -49 20 -55 6 -8 53 -140 55 -155 0 -3 13 -45 29 -95 15 -49
29 -94 30 -100 2 -5 4 -13 5 -17 1 -4 7 -22 13 -40 5 -18 14 -49 18 -68 5 -19
17 -68 28 -108 11 -40 20 -73 20 -75 0 -1 3 -13 6 -27 3 -14 8 -36 10 -50 3
-14 5 -26 7 -27 2 -4 4 -11 14 -68 4 -27 9 -54 11 -60 6 -26 15 -78 30 -170
30 -189 32 -189 32 2 0 99 -4 198 -8 220 -5 21 -12 53 -15 72 -3 19 -10 42
-16 52 -5 11 -7 19 -4 19 3 0 0 10 -7 23 -7 12 -13 56 -14 97 -1 41 -6 93 -13
115 -12 41 -19 68 -26 95 -2 8 -4 17 -6 20 -1 3 -3 10 -4 15 -1 6 -4 17 -7 25
-3 8 -22 69 -43 135 -63 197 -122 336 -229 545 -38 74 -78 153 -90 175 -11 22
-24 42 -28 43 -4 2 -8 10 -8 18 0 8 -4 14 -9 14 -5 0 -11 8 -14 18 -6 17 -38
73 -47 82 -3 3 -21 30 -40 60 -19 30 -63 96 -97 145 -35 50 -69 98 -76 109
-29 44 -82 111 -89 114 -4 2 -8 10 -8 17 0 7 -3 15 -7 17 -5 2 -28 30 -53 63
-25 33 -47 62 -50 65 -3 3 -16 18 -30 34 l-25 28 55 -33 c30 -19 57 -37 58
-41 2 -5 9 -8 16 -8 6 0 20 -16 31 -36 10 -19 27 -45 38 -57 182 -212 325
-404 454 -613 61 -98 173 -312 173 -330 0 -8 5 -14 10 -14 6 0 10 -7 10 -15 0
-8 4 -23 9 -33 19 -36 49 -110 71 -177 12 -38 25 -77 28 -85 3 -8 6 -18 7 -22
2 -5 4 -10 5 -13 1 -3 3 -8 4 -12 17 -63 29 -93 46 -108 19 -18 38 -51 55
-100 12 -35 37 -129 40 -150 1 -11 4 -27 7 -35 3 -8 13 -53 23 -100 9 -47 19
-96 22 -110 3 -14 7 -32 8 -40 1 -8 5 -40 9 -70 4 -30 11 -77 16 -105 5 -27
11 -75 14 -105 3 -30 8 -80 11 -110 3 -30 7 -98 9 -151 1 -53 6 -101 10 -107
3 -6 2 -13 -4 -17 -6 -4 -8 -11 -4 -16 3 -5 5 -33 5 -62 -2 -126 -12 -415 -16
-442 -2 -16 -7 -64 -11 -105 -3 -41 -8 -82 -9 -92 -4 -18 -14 -88 -20 -133 -7
-55 -16 -110 -21 -135 -9 -37 -13 -63 -18 -101 -3 -19 -5 -34 -6 -34 -2 0 -9
-33 -15 -65 -2 -14 -4 -26 -6 -27 -1 -2 -2 -11 -3 -20 -1 -10 -5 -23 -9 -30
-4 -6 -3 -15 3 -18 6 -4 10 -3 9 2 -1 4 0 11 1 16 6 18 8 24 15 55 4 17 11 32
16 32 5 0 9 7 9 15 0 8 5 15 11 15 6 0 8 -8 5 -17 -2 -10 -14 -56 -26 -103
-12 -47 -24 -92 -27 -100 -9 -22 -11 -32 -18 -65 -3 -16 -9 -32 -13 -35 -4 -3
-9 -14 -10 -25 -4 -22 -61 -177 -88 -240 -10 -22 -17 -43 -16 -47 1 -5 -2 -8
-8 -8 -5 0 -10 -9 -10 -19 0 -11 -4 -22 -9 -25 -5 -3 -21 -32 -36 -63 -15 -32
-43 -84 -63 -116 -21 -36 -31 -62 -25 -68 12 -12 41 16 75 75 26 44 52 65 64
53 3 -3 -1 -16 -10 -29 -13 -21 -27 -67 -40 -140 -6 -33 -36 -98 -53 -116 -7
-7 -13 -16 -13 -20 0 -4 -18 -27 -41 -52 -59 -66 -120 -158 -110 -165 6 -3 6
-18 1 -35 -5 -17 -7 -30 -4 -30 2 0 -3 -12 -12 -26 -15 -22 -15 -27 -3 -35 22
-14 28 -11 59 23 25 27 30 29 36 15 11 -29 13 -27 125 93 8 9 31 43 50 74 19
32 42 72 53 90 10 17 22 33 26 36 4 3 10 15 14 28 4 12 11 22 15 22 12 0 61
45 61 56 0 5 5 15 12 22 18 18 130 222 132 242 1 6 112 281 133 328 8 18 15
42 16 52 1 11 6 20 11 20 5 0 7 3 3 6 -3 3 1 25 10 47 8 23 16 49 18 57 2 8
10 34 19 58 8 23 16 46 16 50 0 4 6 25 12 47 6 22 12 45 14 50 6 27 25 102 30
120 3 11 7 29 9 40 2 11 9 43 15 70 6 28 14 60 16 73 2 12 6 34 9 50 11 61 35
210 40 252 2 25 7 61 10 80 42 303 34 885 -15 1071 -10 36 -29 127 -35 164 -2
11 -6 34 -10 50 -3 17 -8 47 -10 68 -3 21 -7 42 -9 46 -3 4 -7 29 -11 55 -3
27 -7 52 -10 56 -2 4 -7 25 -10 46 -2 21 -7 49 -10 62 -3 12 -7 30 -9 40 -41
178 -135 429 -214 572 -14 25 -33 59 -42 75 -9 17 -17 52 -19 79 -3 52 -24
121 -44 146 -8 8 -33 49 -56 90 -24 41 -53 91 -66 110 -60 95 -220 336 -225
340 -3 3 -30 39 -60 80 -29 41 -58 79 -62 85 -30 36 -46 56 -68 85 -14 18 -33
42 -43 54 -10 11 -37 43 -60 70 -81 96 -133 152 -262 281 -160 159 -208 203
-310 284 -44 35 -81 67 -83 72 -2 5 -8 9 -14 9 -6 0 -31 17 -57 38 -104 86
-483 342 -505 342 -4 0 -25 12 -49 27 -56 35 -356 184 -432 213 -33 13 -64 27
-70 31 -30 22 -344 138 -415 153 -8 2 -22 6 -30 9 -13 5 -84 26 -115 33 -81
19 -226 49 -330 68 -123 23 -166 30 -275 42 -25 2 -63 7 -85 10 -145 18 -625
36 -625 24z m3374 -2266 c9 -24 7 -28 -9 -14 -17 14 -20 30 -6 30 5 0 12 -7
15 -16z m643 -1206 c-3 -8 -6 -5 -6 6 -1 11 2 17 5 13 3 -3 4 -12 1 -19z
m-7865 -1071 c-1 -39 -16 -97 -25 -97 -3 0 -2 149 1 160 1 2 7 -1 13 -7 6 -6
11 -31 11 -56z m436 -2149 c-6 -18 -25 -20 -31 -3 -5 10 0 15 14 15 12 0 19
-5 17 -12z"/>
<path d="M4975 8940 c-11 -5 -31 -6 -45 -3 -19 3 -21 2 -10 -5 8 -6 50 -9 93
-8 43 2 80 -1 83 -6 6 -10 9 -9 -86 -11 -41 -1 -81 -6 -89 -11 -7 -5 -57 -10
-110 -12 -177 -6 -286 -14 -356 -28 -38 -8 -73 -12 -77 -9 -5 2 -8 0 -8 -4 0
-5 -8 -9 -18 -10 -25 -2 -182 -53 -182 -60 0 -2 17 -2 38 2 20 4 102 8 182 10
159 4 232 9 246 17 15 8 334 7 334 -1 0 -5 -21 -8 -46 -7 -49 1 -69 -9 -31
-16 12 -2 90 -4 172 -3 109 1 157 -2 178 -12 24 -12 31 -10 28 9 0 3 12 4 27
2 15 -2 81 -6 147 -8 66 -3 132 -7 147 -9 14 -2 32 0 40 4 10 7 8 9 -7 10 -11
1 -29 3 -40 5 -44 6 -152 18 -177 18 -16 1 -28 4 -28 8 0 4 42 5 93 3 194 -9
273 -14 297 -19 26 -6 59 -13 95 -21 54 -11 152 -37 170 -45 45 -18 171 -54
184 -51 7 1 20 -1 30 -4 23 -10 110 -12 105 -3 -3 4 -13 8 -23 8 -10 0 -20 3
-24 6 -3 3 -54 23 -114 44 -59 21 -126 45 -148 53 -22 8 -60 18 -85 21 -25 3
-58 9 -75 12 -16 3 -39 7 -50 9 -11 2 -20 4 -20 5 0 1 -18 3 -40 5 -22 2 -53
6 -70 9 -55 11 -176 22 -329 31 -93 6 -110 10 -100 26 3 5 9 7 12 5 11 -6 178
-20 238 -19 28 1 62 7 75 14 23 13 22 13 -26 21 -27 4 -79 10 -115 13 -36 2
-78 8 -95 11 -41 9 -218 9 -233 0 -7 -4 -12 -4 -12 1 0 4 -23 8 -50 8 -28 1
-50 -3 -50 -8 0 -5 -6 -5 -12 1 -7 5 -22 6 -33 2z m35 -138 c0 -5 -7 -9 -15
-9 -8 0 -15 4 -15 9 0 4 7 8 15 8 8 0 15 -4 15 -8z m175 0 c-9 -9 -165 -10
-165 -1 0 4 38 7 86 7 47 0 82 -3 79 -6z"/>
<path d="M8055 6888 c-33 -38 -71 -82 -85 -97 -14 -15 -36 -41 -50 -57 -14
-16 -61 -69 -105 -119 -44 -49 -91 -103 -105 -119 -14 -16 -36 -41 -50 -56
-37 -40 -133 -150 -166 -189 -16 -19 -38 -44 -49 -56 -11 -11 -49 -54 -85 -95
-36 -41 -76 -86 -90 -101 -14 -15 -39 -45 -57 -66 -17 -21 -48 -56 -68 -78
-33 -36 -105 -117 -152 -171 -18 -21 -129 -146 -168 -190 -11 -12 -42 -48 -70
-79 -27 -32 -61 -70 -75 -85 -14 -15 -46 -51 -71 -81 -26 -30 -57 -66 -70 -80
-13 -14 -51 -56 -84 -94 -33 -38 -65 -73 -70 -79 -6 -6 -60 -67 -120 -136 -60
-69 -112 -127 -115 -130 -3 -3 -34 -39 -70 -80 -36 -41 -69 -80 -75 -86 -5 -6
-39 -44 -75 -84 -36 -40 -76 -85 -90 -100 -14 -16 -37 -42 -51 -59 l-27 -31
-43 52 c-24 28 -54 62 -67 75 -13 13 -20 23 -16 23 3 0 -3 8 -14 18 -11 9 -66
71 -123 137 -56 66 -106 122 -110 123 -5 2 -9 8 -9 12 0 5 -10 20 -22 32 -23
23 -93 104 -159 183 -19 22 -38 45 -44 51 -5 6 -32 37 -60 69 -27 33 -61 70
-74 84 -13 15 -37 43 -55 65 -17 21 -36 43 -42 50 -5 6 -43 49 -83 96 -40 47
-93 108 -116 135 -53 60 -74 85 -128 149 -23 27 -47 54 -52 60 -10 10 -117
135 -155 179 -8 10 -24 29 -35 41 -11 12 -42 49 -70 81 -27 32 -62 71 -76 87
-14 15 -36 41 -49 58 -13 17 -35 43 -49 58 -14 16 -48 55 -76 87 -27 32 -59
69 -70 81 -11 12 -34 40 -52 61 -17 21 -53 61 -78 88 -39 42 -44 45 -31 19 8
-17 12 -34 9 -38 -4 -3 -1 -6 5 -6 7 0 12 -9 12 -20 0 -11 5 -20 12 -20 6 0 8
-3 5 -7 -4 -3 0 -17 8 -30 9 -13 13 -23 10 -23 -4 0 1 -12 9 -27 8 -16 28 -59
44 -98 66 -158 125 -298 166 -388 14 -32 26 -61 26 -66 0 -4 6 -21 14 -37 19
-38 48 -104 81 -184 15 -36 34 -80 41 -97 8 -18 14 -35 14 -38 -1 -3 6 -18 14
-33 8 -15 21 -43 29 -62 44 -105 76 -180 93 -222 23 -54 76 -126 154 -208 8
-8 35 -40 60 -70 24 -30 52 -62 60 -70 8 -8 48 -53 87 -100 40 -47 84 -98 98
-115 25 -28 86 -99 135 -155 11 -14 36 -42 53 -63 18 -21 48 -55 67 -77 19
-21 51 -58 70 -81 19 -23 45 -53 58 -68 13 -14 37 -43 55 -64 18 -21 46 -53
62 -71 17 -18 48 -55 70 -81 22 -27 45 -53 50 -59 6 -6 39 -45 75 -86 36 -41
70 -80 75 -86 39 -43 111 -129 118 -141 7 -12 12 -10 29 9 91 106 127 146 151
172 15 16 47 52 70 79 23 28 57 65 75 84 17 18 32 35 32 38 0 2 12 17 28 33
15 15 52 57 82 92 62 72 135 154 166 186 11 12 30 33 41 48 12 14 48 56 81 93
33 38 69 78 80 91 11 12 47 53 80 90 51 58 92 104 251 285 14 16 31 35 36 41
6 6 42 47 80 91 39 44 78 89 88 100 11 11 38 42 60 69 23 26 58 65 77 86 19
21 51 57 71 81 21 24 50 58 65 74 16 17 52 57 79 88 28 32 69 79 92 105 l43
47 0 -40 c1 -41 1 -3843 0 -3903 l0 -33 -22 21 c-12 11 -25 20 -29 20 -4 0
-14 6 -22 14 -12 13 -22 7 -71 -41 -44 -44 -60 -53 -66 -43 -5 8 -6 18 -3 23
3 5 -5 7 -18 5 -17 -2 -27 -13 -35 -37 -14 -42 -45 -91 -59 -91 -6 0 -29 -9
-50 -21 -22 -11 -73 -25 -114 -30 -40 -4 -81 -14 -90 -22 -9 -7 -58 -34 -108
-61 -84 -43 -93 -45 -93 -27 0 22 -12 20 -87 -16 -31 -15 -48 -48 -19 -37 8 3
17 0 21 -6 4 -6 -9 -17 -32 -26 -21 -9 -62 -27 -91 -40 -29 -13 -55 -24 -59
-24 -3 0 -24 -9 -47 -19 -46 -22 -176 -72 -191 -75 -5 -1 -14 -4 -20 -7 -10
-6 -164 -54 -265 -83 -30 -9 -71 -18 -90 -20 -19 -3 -35 -5 -35 -6 0 -2 -35
-9 -66 -14 -15 -2 -40 -11 -55 -19 -42 -21 -87 -29 -185 -32 -47 -2 -95 -6
-105 -9 -11 -3 -48 -8 -83 -11 -35 -3 -67 -8 -72 -11 -5 -3 -116 -4 -246 -3
-310 2 -353 3 -353 9 0 3 -19 6 -43 8 -23 2 -53 5 -67 7 -89 12 -118 16 -141
19 -14 1 -32 7 -40 11 -7 5 -34 10 -59 11 -51 3 -169 22 -182 30 -4 3 -30 -2
-58 -10 l-51 -15 -112 57 c-143 72 -212 101 -292 121 -55 14 -95 20 -95 16 0
-7 95 -70 103 -67 4 1 7 -3 7 -9 0 -6 9 -8 20 -4 15 5 23 0 32 -19 6 -14 17
-26 25 -26 7 0 42 -14 76 -30 35 -17 66 -30 69 -30 3 0 23 -8 44 -17 22 -9 48
-18 59 -20 11 -2 24 -8 29 -13 6 -6 18 -10 28 -10 10 0 26 -4 36 -9 9 -6 50
-24 90 -42 74 -33 109 -59 79 -59 -8 0 -17 -5 -19 -11 -3 -8 -8 -7 -18 3 -8 8
-49 20 -90 27 -135 23 -228 53 -302 98 -22 13 -40 19 -43 13 -7 -12 -48 -13
-59 -3 -4 5 -11 8 -14 9 -4 0 -29 11 -57 24 -27 13 -54 24 -60 25 -5 2 -48 21
-94 44 -46 22 -87 41 -92 41 -4 0 -46 18 -93 40 -47 22 -94 40 -105 40 -11 0
-23 5 -26 10 -12 20 -25 -1 -14 -22 10 -18 8 -19 -12 -13 -12 4 -44 20 -71 36
-27 16 -53 29 -58 29 -6 0 -10 5 -10 10 0 6 -4 10 -10 10 -8 0 -139 81 -165
102 -5 5 -36 26 -68 48 -49 34 -59 37 -64 23 -4 -11 5 -25 28 -44 72 -59 89
-78 83 -93 -5 -13 -8 -13 -26 3 -10 10 -45 26 -76 35 -104 31 -142 55 -248
158 -122 119 -120 118 -161 116 -17 -1 -43 6 -57 15 -40 27 -60 22 -51 -10 3
-16 13 -32 21 -36 17 -10 18 -44 2 -50 -9 -3 -5 -12 12 -29 14 -13 42 -43 62
-65 21 -23 56 -56 79 -74 23 -19 47 -40 54 -46 8 -7 16 -13 20 -13 4 0 13 -6
20 -12 8 -7 29 -25 48 -41 19 -15 40 -39 46 -55 7 -15 38 -45 69 -66 31 -22
106 -73 165 -115 60 -42 116 -81 125 -86 10 -6 37 -24 61 -40 52 -35 67 -45
186 -119 50 -30 122 -72 160 -92 39 -20 75 -40 80 -44 6 -4 27 -10 48 -13 20
-3 64 -22 96 -41 71 -43 132 -67 186 -71 22 -2 44 -4 48 -4 5 -1 6 -5 2 -10
-7 -13 34 -41 59 -41 21 0 96 -17 230 -51 43 -11 86 -22 95 -24 9 -2 61 -15
115 -30 55 -14 109 -27 120 -29 94 -19 187 -34 216 -35 19 -1 53 -4 75 -7 112
-14 832 -6 970 12 28 4 82 8 120 9 76 3 118 9 211 30 34 8 73 16 85 19 13 2
65 14 114 26 94 23 112 27 183 34 24 2 53 13 63 22 17 15 22 16 29 4 7 -12 10
-12 16 3 3 9 10 15 14 12 5 -3 11 -1 14 4 4 5 57 26 119 47 61 20 117 39 122
43 6 3 12 6 15 6 15 0 180 75 330 150 142 70 193 97 200 106 3 3 19 13 37 22
17 9 82 64 144 122 62 58 117 105 122 105 4 0 13 5 20 10 48 41 62 50 73 50 7
0 14 4 16 8 2 4 50 44 108 87 58 44 110 84 116 90 6 5 26 22 45 37 19 14 48
38 64 52 l30 26 0 2786 c0 1532 -2 2787 -5 2788 -3 2 -32 -28 -65 -66z m-1264
-5559 c-26 -21 -37 -19 -28 6 4 8 17 15 29 15 l23 -1 -24 -20z"/>
<path d="M5102 1134 c-11 -8 -25 -14 -29 -13 -23 4 -53 -2 -49 -10 6 -10 106
-12 121 -2 6 3 24 7 40 8 48 2 51 3 35 12 -8 5 -26 8 -40 7 -14 -1 -32 1 -41
5 -9 5 -24 2 -37 -7z"/>
<path d="M5319 1085 c-3 -3 -42 -8 -85 -11 -43 -2 -85 -7 -91 -9 -7 -2 -13 1
-13 7 0 7 -4 7 -14 -1 -7 -6 -24 -11 -37 -11 -150 3 -223 -1 -235 -11 -32 -26
-14 -32 84 -24 53 5 162 9 242 10 80 1 160 5 179 9 39 8 77 31 63 40 -9 5 -59
-1 -73 -10 -4 -2 -9 1 -11 7 -2 5 -6 8 -9 4z"/>
<path d="M5105 1022 c-38 -4 -75 -22 -75 -38 0 -8 26 -12 90 -12 57 -1 90 3
90 10 0 6 -9 8 -20 5 -11 -3 -20 -1 -20 5 0 5 -5 6 -12 2 -7 -5 -8 -3 -4 5 5
7 14 10 20 8 7 -3 19 -2 26 3 14 9 -47 17 -95 12z"/>
<path d="M5130 191 c0 -6 5 -13 10 -16 6 -3 10 1 10 9 0 9 -4 16 -10 16 -5 0
-10 -4 -10 -9z"/>
</g>
</svg>
